<?xml version="1.0" standalone="no"?>
<!DOCTYPE svg PUBLIC "-//W3C//DTD SVG 20010904//EN"
 "http://www.w3.org/TR/2001/REC-SVG-20010904/DTD/svg10.dtd">
<svg version="1.0" xmlns="http://www.w3.org/2000/svg"
 width="1792.000000pt" height="1024.000000pt" viewBox="0 0 1792.000000 1024.000000"
 preserveAspectRatio="xMidYMid meet">

<g transform="translate(0.000000,1024.000000) scale(0.100000,-0.100000)"
fill="#000000" stroke="none">
<path d="M8094 8065 c-164 -25 -336 -95 -416 -169 l-38 -35 0 -400 0 -401 -70
0 c-38 0 -70 -3 -70 -7 0 -5 30 -104 66 -220 l67 -213 79 0 78 0 0 -253 c0
-187 3 -257 13 -269 14 -18 410 -295 445 -311 17 -8 21 -16 16 -31 -9 -27 -53
-116 -58 -116 -3 0 -75 41 -162 90 -86 50 -159 89 -161 87 -2 -2 -2 -142 -1
-310 l3 -307 163 91 163 91 65 -45 66 -46 69 46 68 45 113 -62 c62 -35 136
-75 164 -91 l52 -28 6 22 c7 28 8 597 1 597 -10 0 -68 -31 -196 -106 -69 -41
-130 -74 -135 -74 -6 0 -22 25 -37 56 -22 43 -25 59 -16 70 14 17 165 124 314
224 174 116 155 71 155 372 l0 258 78 0 78 0 68 208 c38 114 71 213 74 220 3
9 -15 12 -72 12 l-76 0 0 404 0 405 -42 34 c-98 79 -258 140 -426 162 -135 18
-375 18 -488 0z"/>
<path d="M10370 6881 c-49 -10 -73 -28 -104 -75 l-26 -40 0 -746 c0 -458 4
-759 10 -780 11 -41 61 -94 103 -109 19 -8 273 -11 776 -11 l748 0 51 -111 52
-111 -45 -67 c-25 -36 -60 -84 -79 -106 l-33 -39 -18 99 c-9 55 -22 127 -29
159 l-11 60 -70 17 c-229 56 -330 78 -335 73 -2 -3 -5 -33 -5 -66 l0 -61 94
-58 c52 -32 98 -60 104 -62 6 -2 5 -34 -3 -89 l-12 -85 -61 -6 c-60 -5 -63 -4
-112 33 -28 21 -77 63 -110 93 -50 45 -71 57 -125 70 -152 37 -160 35 -160
-33 0 -31 12 -47 115 -150 63 -63 115 -117 115 -122 0 -4 -36 -52 -80 -107
l-80 -100 83 -128 c46 -70 108 -167 138 -215 31 -50 59 -85 67 -83 6 2 36 22
65 43 28 21 167 120 307 221 140 100 265 189 276 199 12 9 74 131 138 271
l115 254 -59 99 c-33 53 -60 100 -60 102 0 3 132 6 293 8 285 3 293 4 329 26
20 13 46 38 57 56 21 33 21 45 21 800 0 856 5 801 -72 856 l-41 30 -1146 -1
c-630 -1 -1162 -4 -1181 -8z m2204 -149 c-110 -104 -1035 -937 -1043 -940 -7
-2 -740 654 -1045 935 l-68 63 1108 0 1109 -1 -61 -57z m-1815 -332 c209 -190
381 -350 381 -355 0 -6 -176 -186 -392 -401 l-392 -389 -7 50 c-9 64 -11 1276
-3 1378 5 56 10 74 19 69 7 -4 184 -162 394 -352z m1951 -387 l-1 -748 -66 70
c-37 39 -200 209 -362 379 -163 169 -306 321 -318 336 l-23 28 378 341 c207
188 380 341 384 341 5 0 8 -336 8 -747z m-444 -369 c202 -212 374 -394 382
-405 13 -19 -4 -19 -1110 -19 l-1122 0 44 48 c25 26 200 203 389 394 l344 346
164 -149 c133 -120 168 -147 181 -139 9 5 91 76 182 159 91 82 168 150 171
150 3 1 172 -173 375 -385z"/>
<path d="M7600 5828 c-52 -50 -151 -141 -220 -203 l-125 -112 -395 -197 c-217
-109 -400 -203 -407 -209 -7 -7 -20 -108 -32 -257 -12 -135 -30 -321 -41 -415
-11 -93 -31 -289 -45 -435 -13 -146 -36 -371 -49 -500 -13 -129 -26 -267 -29
-305 l-5 -71 46 -29 c54 -34 590 -387 1032 -680 168 -111 359 -237 425 -280
153 -100 555 -367 571 -379 11 -9 119 59 559 354 293 197 801 532 872 575 l72
44 173 -152 c95 -83 215 -192 266 -242 l94 -90 360 365 c198 201 506 512 684
692 l325 327 -77 100 c-42 55 -82 106 -90 112 -11 9 -43 -9 -150 -80 -75 -51
-138 -90 -139 -89 -2 2 -39 62 -82 133 -44 72 -102 166 -129 210 -28 44 -77
126 -109 183 -32 56 -64 102 -70 102 -12 0 -114 -104 -320 -323 -76 -81 -140
-145 -143 -142 -8 7 -19 85 -62 425 -22 173 -42 324 -44 335 -3 11 -19 130
-36 265 -18 135 -32 246 -33 247 -1 1 -183 91 -404 202 -220 110 -404 204
-408 210 -3 6 -57 53 -118 104 -62 52 -158 137 -214 190 -56 53 -106 97 -111
97 -5 0 -12 -116 -15 -257 -5 -238 -8 -275 -42 -473 -71 -419 -172 -728 -351
-1081 -58 -115 -211 -360 -232 -373 -23 -14 -182 239 -282 449 -235 489 -360
1032 -360 1567 0 92 -3 169 -7 171 -5 3 -51 -36 -103 -85z m-70 -793 l0 -75
-95 0 c-52 0 -95 -4 -95 -9 0 -4 74 -230 165 -502 253 -754 297 -910 361
-1267 18 -103 14 -135 -5 -45 -22 100 -119 359 -221 593 -108 248 -173 412
-287 720 -73 199 -223 637 -223 652 0 5 90 8 200 8 l200 0 0 -75z m2020 65 c0
-5 -18 -64 -40 -132 -67 -208 -129 -422 -124 -430 3 -4 68 -8 145 -8 l139 0 0
-90 0 -90 -168 0 c-119 0 -173 -4 -184 -12 -9 -7 -41 -74 -71 -148 -87 -213
-211 -507 -254 -605 -49 -110 -115 -288 -148 -398 -13 -45 -24 -73 -24 -62 -1
43 71 369 118 537 87 306 105 362 290 932 61 187 111 345 111 353 0 10 -22 13
-90 13 l-90 0 0 75 0 75 195 0 c117 0 195 -4 195 -10z m-1161 -1695 c33 -16
41 -33 41 -80 0 -24 -7 -39 -26 -54 -59 -46 -144 -11 -144 58 0 73 63 111 129
76z m18 -417 c30 -34 34 -55 19 -92 -35 -84 -166 -58 -166 33 0 50 32 81 85
81 30 0 47 -6 62 -22z m3 -403 c73 -78 -30 -190 -114 -124 -35 28 -46 57 -34
92 21 60 105 78 148 32z"/>
<path d="M8269 4931 c-33 -34 -40 -91 -14 -128 42 -60 152 -47 180 22 42 99
-89 182 -166 106z"/>
<path d="M8313 4363 c-32 -6 -73 -59 -73 -94 0 -88 82 -135 156 -90 99 60 33
206 -83 184z"/>
</g>
</svg>
