<?xml version="1.0" standalone="no"?>
<!DOCTYPE svg PUBLIC "-//W3C//DTD SVG 20010904//EN"
 "http://www.w3.org/TR/2001/REC-SVG-20010904/DTD/svg10.dtd">
<svg version="1.0" xmlns="http://www.w3.org/2000/svg"
 width="270.000000pt" height="270.000000pt" viewBox="0 0 270.000000 270.000000"
 preserveAspectRatio="xMidYMid meet">

<g transform="translate(0.000000,270.000000) scale(0.100000,-0.100000)"
fill="#000000" stroke="none">
<path d="M1175 2599 c-156 -23 -284 -98 -339 -199 -26 -48 -28 -58 -22 -124 4
-39 7 -75 7 -81 3 -50 -17 -143 -35 -163 -50 -55 -12 -227 68 -312 30 -31 34
-43 40 -106 5 -57 3 -73 -8 -77 -8 -3 -20 -23 -27 -44 -6 -21 -27 -56 -46 -77
-48 -57 -56 -99 -43 -209 6 -51 19 -123 28 -162 l17 -70 65 -7 c61 -7 66 -6
92 19 l28 26 -9 -30 c-5 -17 -13 -39 -19 -49 -12 -22 -76 -84 -109 -106 l-23
-15 33 -30 32 -31 147 42 c81 23 150 44 153 48 3 3 -53 88 -125 188 -72 100
-138 193 -148 208 l-17 27 32 -23 c18 -12 56 -34 86 -47 50 -23 55 -28 60 -64
3 -22 17 -65 31 -96 24 -53 27 -56 54 -51 26 6 30 2 62 -59 43 -80 59 -86 24
-7 -37 82 -38 85 -10 111 l25 23 42 -86 c23 -48 44 -84 47 -82 2 3 -12 46 -32
96 -20 49 -36 91 -36 93 0 1 18 2 39 2 l40 1 37 -85 c46 -102 57 -93 15 14
-24 63 -26 75 -13 70 9 -4 28 -11 42 -16 18 -7 31 -25 47 -67 22 -55 24 -44 6
38 -4 17 -2 22 5 15 6 -5 14 -30 19 -55 8 -41 12 -45 37 -43 15 1 52 9 83 18
l57 17 -40 17 c-21 10 -48 28 -59 40 l-19 22 26 -6 c20 -5 29 -2 41 16 15 21
14 24 -38 71 -43 39 -57 60 -70 103 -8 30 -20 57 -25 60 -14 9 -105 -33 -131
-61 -21 -22 -49 -32 -49 -18 0 6 60 108 86 148 11 17 14 14 24 -24 16 -59 36
-39 22 23 -9 44 -8 47 34 107 67 96 121 274 140 465 3 28 19 77 35 109 33 68
38 135 14 193 -8 19 -15 52 -15 72 0 50 -40 130 -84 169 -99 87 -279 133 -431
111z m82 -163 c18 -9 42 -16 55 -16 18 0 13 5 -20 21 -52 26 -51 31 3 17 25
-7 60 -8 90 -3 l50 8 -44 8 c-25 5 -49 14 -55 20 -8 9 -5 10 14 6 13 -4 44 -2
68 4 29 6 56 6 81 -1 81 -22 149 -116 131 -182 -5 -15 -5 -28 0 -28 22 0 61
-70 67 -119 6 -53 -9 -73 -21 -27 -3 13 -13 27 -22 30 -15 6 -15 4 -3 -10 13
-16 12 -16 -7 -6 -21 11 -22 10 -29 -79 l-7 -90 -23 21 c-21 20 -26 21 -84 9
-50 -9 -61 -15 -61 -31 0 -11 -9 -27 -20 -36 -23 -19 -39 -82 -21 -82 6 0 11
9 11 20 0 22 16 23 38 3 19 -18 29 -16 53 8 20 20 23 20 31 5 5 -9 16 -16 24
-16 25 0 -4 41 -37 53 -30 12 -39 27 -15 27 7 0 26 2 42 5 17 3 36 -1 46 -8
16 -12 16 -25 9 -114 -5 -58 -16 -114 -26 -133 -9 -18 -18 -46 -21 -62 -2 -16
-15 -54 -28 -84 -30 -66 -139 -219 -162 -228 -41 -16 -121 -18 -154 -3 -50 21
-223 168 -250 212 -17 27 -24 58 -28 111 -4 61 -8 74 -22 74 -45 0 -104 114
-104 203 -1 65 15 86 48 63 33 -21 56 -79 65 -161 6 -48 15 -83 25 -93 15 -15
16 -8 16 79 0 116 18 181 65 236 34 40 35 44 29 97 -8 69 1 81 70 97 58 13
122 0 199 -40 l38 -19 87 25 c91 26 142 48 154 67 24 35 -2 101 -49 125 -35
18 -43 13 -43 -23 0 -19 -4 -38 -10 -41 -6 -3 -10 4 -10 17 0 14 -6 32 -13 43
-13 16 -13 15 -9 -15 4 -31 -21 -100 -37 -100 -3 0 -5 20 -3 45 l4 44 -50 -6
c-29 -3 -65 0 -87 7 -40 13 -109 70 -127 104 -8 15 -1 12 23 -10 19 -18 48
-39 66 -48z m-249 -1030 c23 -12 31 -24 34 -51 2 -20 1 -38 -3 -40 -10 -7
-126 71 -138 93 -6 11 -8 36 -4 55 l6 37 38 -40 c21 -21 51 -46 67 -54z m185
-117 l62 -58 -53 19 c-82 31 -102 25 -102 -31 0 -19 -8 -23 -32 -14 -10 4 -13
23 -10 75 2 38 -1 83 -6 100 l-11 30 45 -31 c25 -17 74 -58 107 -90z m135 -28
c-19 -31 -27 -38 -36 -29 -20 20 -14 37 20 58 18 10 34 17 36 15 2 -2 -7 -22
-20 -44z m152 -1 c-8 -5 -19 -10 -25 -10 -5 0 -3 5 5 10 8 5 20 10 25 10 6 0
3 -5 -5 -10z m59 -80 c0 -19 -4 -44 -9 -55 -6 -14 -9 -3 -9 40 -1 33 -4 71 -6
85 -5 22 -3 21 9 -5 9 -16 15 -46 15 -65z m-389 2 c0 -31 5 -75 10 -97 12 -52
4 -58 -15 -11 -20 46 -29 117 -21 151 11 43 26 18 26 -43z"/>
<path d="M1571 2261 c-10 -7 -6 -15 18 -37 30 -27 81 -44 81 -27 0 4 -9 23
-20 41 -20 32 -50 41 -79 23z"/>
<path d="M1060 2021 c-22 -23 -40 -46 -40 -50 0 -5 22 3 49 17 l49 27 79 -26
c76 -25 78 -26 80 -60 2 -44 13 -79 24 -79 15 0 10 84 -7 108 -8 12 -13 31 -9
41 5 16 -4 21 -57 36 -120 33 -124 32 -168 -14z"/>
<path d="M827 1983 c-4 -3 -7 -17 -7 -31 0 -20 3 -22 14 -13 22 18 38 -9 20
-33 -21 -30 -17 -49 21 -92 29 -33 34 -36 35 -18 0 12 -9 31 -20 44 -18 21
-19 25 -5 40 21 24 19 44 -11 79 -26 32 -35 36 -47 24z"/>
<path d="M1103 1950 c-38 -23 -43 -35 -12 -27 12 3 32 -1 44 -9 25 -16 55 -9
55 12 0 18 14 18 30 -1 18 -21 22 -13 11 19 -9 22 -16 26 -53 26 -25 0 -57 -8
-75 -20z"/>
<path d="M1236 1751 c-11 -13 -15 -27 -11 -40 8 -27 25 -28 18 -1 -3 11 0 27
7 35 19 23 6 28 -14 6z"/>
<path d="M1421 1714 c-2 -37 -71 -56 -107 -29 -22 17 -54 20 -54 5 0 -5 5 -10
11 -10 6 0 24 -14 40 -31 l29 -31 41 28 c45 31 53 43 46 71 -4 15 -5 15 -6 -3z"/>
<path d="M990 1711 c0 -4 4 -11 9 -16 5 -6 16 -36 25 -67 9 -31 21 -60 28 -64
8 -5 9 -2 4 12 -16 38 -25 89 -20 110 4 17 0 22 -20 26 -14 3 -26 2 -26 -1z"/>
<path d="M1138 1688 c-34 -14 -48 -26 -48 -40 0 -17 2 -18 15 -5 8 8 30 25 50
37 19 12 35 24 35 26 0 6 1 6 -52 -18z"/>
<path d="M1464 1603 l0 -54 18 35 c18 35 16 61 -5 69 -8 3 -12 -13 -13 -50z"/>
<path d="M1135 1620 c10 -11 45 -33 78 -50 79 -39 126 -39 195 0 28 17 52 31
52 33 0 1 -35 1 -79 -1 -83 -4 -220 13 -235 28 -19 19 -29 10 -11 -10z m240
-50 c-11 -18 -71 -22 -106 -7 l-34 15 73 1 c45 1 71 -3 67 -9z"/>
<path d="M1227 1500 c45 -63 118 -65 157 -4 18 26 18 26 -6 17 -37 -13 -110
-9 -146 9 l-32 17 27 -39z"/>
<path d="M685 1259 c-22 -17 -85 -55 -140 -86 -286 -159 -296 -167 -276 -236
31 -106 160 -269 309 -388 42 -34 158 -116 257 -182 99 -66 223 -152 275 -191
77 -57 102 -70 130 -69 22 0 89 27 185 76 l150 75 75 -20 c106 -28 310 -35
416 -15 96 18 199 57 269 102 60 39 79 59 99 107 14 32 23 39 80 58 125 41
154 96 61 114 -17 3 -24 3 -17 0 16 -8 15 -29 -2 -43 -34 -28 -314 -82 -496
-95 l-75 -6 83 20 c46 10 180 51 298 91 229 76 239 82 253 152 17 78 -36 161
-137 215 -102 54 -357 143 -392 136 -16 -4 -30 -9 -30 -13 0 -3 44 -21 98 -39
170 -58 299 -112 340 -141 22 -17 49 -49 61 -75 20 -40 21 -50 11 -81 -10 -31
-35 -55 -56 -55 -3 0 -4 11 -2 24 3 14 2 29 -1 34 -3 5 -70 -13 -148 -41 -115
-40 -143 -53 -143 -68 0 -11 4 -19 8 -19 4 0 55 16 112 35 58 19 108 34 113
32 9 -3 -260 -97 -276 -97 -5 0 -5 5 -1 12 10 16 6 88 -8 123 -16 44 -53 90
-90 116 l-33 22 36 -39 c63 -67 96 -153 81 -207 -7 -27 -21 -34 -182 -92 -96
-34 -211 -77 -255 -94 -44 -17 -81 -31 -83 -31 -1 0 2 9 8 19 27 51 -6 147
-74 217 -72 74 -92 69 -22 -6 91 -99 110 -210 42 -251 -42 -26 -47 -24 -34 11
13 38 -3 107 -37 166 -53 90 -245 237 -329 251 -48 8 -46 -9 3 -32 113 -51
253 -173 296 -259 27 -54 33 -118 14 -159 -12 -26 -97 -67 -138 -67 -13 0 -49
15 -80 34 -93 56 -331 172 -403 196 -55 18 -71 20 -83 10 -8 -7 -15 -16 -15
-21 0 -19 34 -39 69 -39 73 0 252 -104 372 -217 41 -38 51 -43 68 -34 29 16
71 31 71 26 0 -6 -117 -65 -129 -65 -6 0 -25 16 -43 36 -80 88 -270 206 -375
234 -56 14 -73 61 -36 102 9 11 11 18 4 23 -17 10 -13 52 6 71 11 11 16 29 14
50 -2 23 4 38 18 51 21 17 21 17 -21 60 -23 23 -40 44 -37 47 2 2 27 15 54 29
28 14 61 34 75 45 l25 20 -77 7 c-48 4 -79 12 -82 20 -4 12 -33 235 -38 302
l-3 32 -40 -30z m1693 -841 c-18 -28 -75 -68 -96 -68 -12 0 -12 3 -2 15 23 28
-6 15 -36 -16 -35 -37 -66 -54 -119 -64 -38 -6 -39 -6 -24 12 33 38 31 46 -5
18 -46 -35 -127 -46 -171 -22 l-29 15 32 16 c42 22 40 28 -5 20 -37 -5 -102
11 -90 23 8 7 310 52 316 47 3 -2 -6 -16 -20 -30 l-24 -25 66 29 c36 16 76 33
90 37 24 8 24 8 5 -14 -23 -25 -16 -27 27 -4 31 15 72 30 91 32 5 1 2 -9 -6
-21z"/>
<path d="M1615 1192 c17 -15 48 -42 69 -61 39 -33 39 -33 23 -61 -24 -41 -22
-46 27 -60 40 -11 55 -10 142 13 53 14 99 29 103 32 3 4 -12 23 -34 44 -35 33
-59 42 -191 79 -83 23 -154 42 -160 42 -5 0 5 -13 21 -28z"/>
<path d="M1355 1011 c-7 -12 12 -24 25 -16 11 7 4 25 -10 25 -5 0 -11 -4 -15
-9z"/>
<path d="M1794 960 c-116 -31 -217 -59 -223 -61 -7 -3 9 -19 37 -36 l49 -30
254 72 c140 40 247 75 239 79 -58 21 -108 36 -125 35 -11 -1 -115 -27 -231
-59z"/>
<path d="M2185 955 c-5 -2 -57 -18 -115 -36 -94 -28 -102 -33 -78 -41 34 -12
275 60 243 73 -22 8 -35 9 -50 4z"/>
<path d="M2200 888 c-107 -34 -107 -35 -94 -48 11 -11 234 58 234 72 0 14 -43
7 -140 -24z"/>
<path d="M2300 865 c-152 -52 -154 -53 -140 -70 10 -12 30 -7 138 31 69 24
128 46 130 48 2 3 -5 9 -15 14 -13 7 -44 0 -113 -23z"/>
<path d="M1385 845 c-60 -19 -112 -34 -115 -34 -3 -1 18 -13 45 -27 28 -15 72
-42 98 -61 l48 -34 109 38 c61 21 110 40 110 43 0 10 -172 113 -182 109 -2 -1
-52 -16 -113 -34z"/>
<path d="M1803 846 c-56 -17 -104 -34 -108 -37 -3 -3 5 -10 17 -16 18 -8 46
-2 133 27 99 33 108 38 88 48 -12 7 -23 12 -25 11 -2 -1 -49 -15 -105 -33z"/>
<path d="M2318 807 c-110 -40 -146 -57 -120 -57 13 0 264 88 271 95 14 15 -48
-1 -151 -38z"/>
<path d="M1780 758 c-113 -39 -207 -73 -209 -75 -3 -2 0 -8 5 -13 6 -6 71 12
184 51 259 89 263 91 248 100 -17 11 4 17 -228 -63z"/>
<path d="M2334 773 c-114 -40 -131 -49 -126 -65 2 -11 10 -17 16 -15 6 2 70
23 141 47 72 23 131 44 133 45 7 6 -11 35 -22 34 -6 0 -70 -21 -142 -46z"/>
<path d="M2013 780 c-29 -12 -29 -14 6 -58 32 -41 51 -91 51 -133 0 -33 0 -32
34 -19 21 8 26 16 26 45 0 43 -21 97 -56 142 -27 36 -28 36 -61 23z"/>
<path d="M1783 701 c-84 -31 -155 -59 -158 -62 -3 -3 0 -11 7 -16 20 -15 352
109 336 125 -16 16 -14 17 -185 -47z"/>
<path d="M2353 712 c-73 -26 -133 -50 -133 -54 0 -7 278 87 288 97 13 13 -34
0 -155 -43z"/>
<path d="M961 736 l-33 -12 73 -38 c75 -39 180 -106 167 -106 -4 0 -33 11 -65
26 -88 38 -48 9 69 -52 56 -29 96 -53 88 -54 -27 0 -158 68 -248 129 -48 32
-97 64 -109 70 -29 15 -60 14 -66 -1 -10 -28 19 -51 126 -103 62 -30 166 -83
232 -119 66 -36 129 -67 140 -69 11 -3 2 -3 -20 -1 -27 1 -104 35 -231 99
-199 100 -274 125 -274 89 0 -32 12 -41 80 -64 96 -32 279 -122 391 -191 88
-54 100 -59 121 -48 32 17 38 28 38 72 0 100 -145 253 -335 352 -71 37 -91 40
-144 21z"/>
<path d="M1840 659 c-163 -59 -184 -68 -178 -75 6 -5 318 105 333 118 19 17
-24 5 -155 -43z"/>
<path d="M1860 629 c-175 -65 -190 -72 -174 -88 7 -8 54 5 172 47 89 32 164
61 168 64 3 4 2 13 -3 20 -6 11 -39 2 -163 -43z"/>
<path d="M1867 560 c-149 -55 -184 -70 -160 -70 11 0 335 119 342 126 13 13
-41 -3 -182 -56z"/>
<path d="M1873 531 c-152 -57 -173 -67 -173 -86 0 -22 7 -20 172 42 95 35 174
65 176 67 2 3 2 13 0 23 -3 17 -20 12 -175 -46z"/>
</g>
</svg>
